<svg xmlns="http://www.w3.org/2000/svg" width="15.576" height="15.573" viewBox="0 0 15.576 15.573">
  <path id="instagram" d="M7.715,35.619a3.993,3.993,0,1,0,3.993,3.993A3.986,3.986,0,0,0,7.715,35.619Zm0,6.588a2.6,2.6,0,1,1,2.6-2.6,2.6,2.6,0,0,1-2.6,2.6ZM12.8,35.455a.931.931,0,1,1-.931-.931A.929.929,0,0,1,12.8,35.455Zm2.644.945a4.609,4.609,0,0,0-1.258-3.263,4.639,4.639,0,0,0-3.263-1.258c-1.286-.073-5.139-.073-6.425,0a4.632,4.632,0,0,0-3.263,1.254A4.624,4.624,0,0,0-.02,36.4c-.073,1.286-.073,5.139,0,6.425a4.609,4.609,0,0,0,1.258,3.263A4.645,4.645,0,0,0,4.5,47.343c1.286.073,5.139.073,6.425,0a4.609,4.609,0,0,0,3.263-1.258,4.639,4.639,0,0,0,1.258-3.263C15.52,41.537,15.52,37.686,15.447,36.4Zm-1.661,7.8a2.628,2.628,0,0,1-1.48,1.48,17.162,17.162,0,0,1-4.59.313,17.3,17.3,0,0,1-4.59-.313,2.628,2.628,0,0,1-1.48-1.48,17.162,17.162,0,0,1-.313-4.59,17.3,17.3,0,0,1,.313-4.59,2.628,2.628,0,0,1,1.48-1.48,17.162,17.162,0,0,1,4.59-.313,17.3,17.3,0,0,1,4.59.313,2.628,2.628,0,0,1,1.48,1.48,17.163,17.163,0,0,1,.313,4.59A17.153,17.153,0,0,1,13.786,44.2Z" transform="translate(0.075 -31.825)" fill="#fff"/>
</svg>
