<svg xmlns="http://www.w3.org/2000/svg" width="16.899" height="16.192" viewBox="0 0 16.899 16.192">
  <g id="search" transform="translate(-162.837 -45.603)" fill="none">
    <path d="M174.787,57.552a6.993,6.993,0,1,1,.657-.757l4.292,4.293-.706.707Z" stroke="none"/>
    <path d="M 169.8372039794922 58.60295104980469 C 171.4397735595703 58.60295104980469 172.9465942382812 57.97870254516602 174.0800933837891 56.8452033996582 L 174.3862609863281 56.53902053833008 L 174.6438293457031 56.19544219970703 C 175.5008087158203 55.05228424072266 175.9197540283203 53.63264083862305 175.8235015869141 52.19804382324219 C 175.7263793945312 50.75037384033203 175.1072235107422 49.38743209838867 174.0800933837891 48.36030197143555 C 172.9465942382812 47.22680282592773 171.4397735595703 46.60255432128906 169.8372039794922 46.60255432128906 C 168.2346496582031 46.60255432128906 166.7278137207031 47.22680282592773 165.5943145751953 48.36031341552734 C 164.4612426757812 49.49338150024414 163.8372344970703 51.00004196166992 163.8372344970703 52.60275268554688 C 163.8372344970703 54.20546340942383 164.4612426757812 55.71212387084961 165.5943145751953 56.84519195556641 C 166.7278137207031 57.97870254516602 168.2346496582031 58.60295104980469 169.8372039794922 58.60295104980469 M 179.0298004150391 61.79490280151367 L 174.7872009277344 57.55230331420898 C 173.4201049804688 58.91940307617188 171.6286468505859 59.60295104980469 169.8372039794922 59.60295104980469 C 168.0457611083984 59.60295104980469 166.2543029785156 58.91940307617188 164.88720703125 57.55230331420898 C 162.1539001464844 54.81900405883789 162.1539001464844 50.38650131225586 164.88720703125 47.65320205688477 C 166.2543029785156 46.28610229492188 168.0457611083984 45.60255432128906 169.8372039794922 45.60255432128906 C 171.6286468505859 45.60255432128906 173.4201049804688 46.28610229492188 174.7872009277344 47.65320205688477 C 177.2804412841797 50.14643096923828 177.4992218017578 54.05368423461914 175.4439544677734 56.79527282714844 L 179.7362976074219 61.08840179443359 L 179.0298004150391 61.79490280151367 Z" stroke="none" fill="#fff"/>
  </g>
</svg>
