<svg xmlns="http://www.w3.org/2000/svg" width="19.174" height="15.573" viewBox="0 0 19.174 15.573">
  <path id="twitter" d="M17.2,51.963c.012.17.012.341.012.511A11.1,11.1,0,0,1,6.034,63.655,11.105,11.105,0,0,1,0,61.891a8.13,8.13,0,0,0,.949.049A7.87,7.87,0,0,0,5.828,60.26a3.937,3.937,0,0,1-3.674-2.725A4.955,4.955,0,0,0,2.9,57.6a4.156,4.156,0,0,0,1.034-.134A3.93,3.93,0,0,1,.779,53.606v-.049a3.958,3.958,0,0,0,1.776.5A3.936,3.936,0,0,1,1.338,48.8a11.17,11.17,0,0,0,8.1,4.112,4.436,4.436,0,0,1-.1-.9,3.933,3.933,0,0,1,6.8-2.689,7.737,7.737,0,0,0,2.494-.949,3.919,3.919,0,0,1-1.728,2.166,7.878,7.878,0,0,0,2.263-.608A8.447,8.447,0,0,1,17.2,51.963Z" transform="translate(0 -48.082)" fill="#fff"/>
</svg>
