<svg xmlns="http://www.w3.org/2000/svg" xmlns:xlink="http://www.w3.org/1999/xlink" width="189px" height="37px" viewBox="0 0 189 37" version="1.1">
    <!-- Generator: Sketch 63.1 (92452) - https://sketch.com -->
    <title>assets/logo white</title>
    <desc>Created with Sketch.</desc>
    <g id="assets/logo-white" stroke="none" stroke-width="1" fill="none" fill-rule="evenodd">
        <g id="Group" transform="translate(0.000000, 5.000000)" fill="#FFFFFF" fill-rule="nonzero">
            <path d="M2.19545455,17.3037162 L2.19545455,9.53209459 L0.15,9.53209459 L0.15,7.45236486 L2.19545455,7.45236486 L2.19545455,4.03175676 L4.86818182,3.48445946 L6.42272727,3.48445946 L6.42272727,7.45236486 L10.0772727,7.45236486 L10.0772727,9.53209459 L6.42272727,9.53209459 L6.42272727,17.3858108 C6.42272727,18.6172297 6.77727273,19.2192568 7.73181818,19.2192568 C8.74090909,19.2192568 9.23181818,18.3162162 9.77727273,16.3185811 L11.3590909,16.7290541 C10.8409091,19.7391892 9.45,21.4631757 6.47727273,21.4631757 C3.75,21.4631757 2.19545455,20.3138514 2.19545455,17.3037162 Z M10.9409091,9.34054054 L10.9409091,7.45236486 L17.7863636,7.45236486 L17.7863636,9.34054054 L16.5045455,9.45 L18.9318182,17.1668919 L19.0409091,17.1668919 L21.1954545,11.3381757 L20.6227273,9.45 L19.45,9.34054054 L19.45,7.45236486 L25.9409091,7.45236486 L25.9409091,9.34054054 L24.6045455,9.45 L27.2227273,17.1942568 L27.3318182,17.1942568 L29.4318182,9.45 L27.7954545,9.34054054 L27.7954545,7.45236486 L33.0045455,7.45236486 L33.0045455,9.34054054 L31.6409091,9.45 L28.0681818,21.1621622 L24.7409091,21.1621622 L22.2318182,14.2114865 L22.0954545,14.2114865 L19.5318182,21.1621622 L16.4227273,21.1621622 L12.1681818,9.45 L10.9409091,9.34054054 Z M33.1863636,14.5398649 C33.1863636,9.83310811 36.0772727,7.15135135 39.95,7.15135135 C43.4409091,7.15135135 45.8409091,9.03952703 45.8409091,13.1989865 C45.8409091,13.5547297 45.8136364,14.2935811 45.7863636,14.6766892 L37.6045455,14.6766892 C37.6318182,17.2216216 38.2045455,19.1918919 40.6590909,19.1918919 C42.35,19.1918919 43.1409091,18.2067568 43.7954545,16.7290541 L45.7318182,17.4131757 C44.9136364,19.985473 42.8954545,21.4631757 39.9772727,21.4631757 C35.5590909,21.4631757 33.1863636,18.6719595 33.1863636,14.5398649 Z M37.6318182,12.8706081 L41.5590909,12.8706081 L41.5590909,12.3780405 C41.5590909,9.88783784 41.2045455,8.79324324 39.7863636,8.79324324 C38.1772727,8.79324324 37.6863636,10.5993243 37.6318182,12.8706081 Z M47.2227273,7.53445946 L52.4863636,7.34290541 L52.6772727,9.94256757 L52.8409091,9.94256757 C53.5227273,8.54695946 54.6954545,7.15135135 57.45,7.15135135 C60.15,7.15135135 61.6772727,8.41013514 61.6772727,11.6118243 L61.6772727,19.0550676 L63.3954545,19.2466216 L63.3954545,21.1621622 L56.1681818,21.1621622 L56.1681818,19.2466216 L57.45,19.0550676 L57.45,12.1591216 C57.45,10.6814189 57.2590909,9.69628378 55.7590909,9.69628378 C54.2863636,9.69628378 53.1409091,10.5719595 53.1409091,12.7885135 L53.1409091,19.0550676 L54.5318182,19.2466216 L54.5318182,21.1621622 L47.2227273,21.1621622 L47.2227273,19.2466216 L48.9136364,19.0550676 L48.9136364,9.61418919 L47.2227273,9.42263514 L47.2227273,7.53445946 Z M65.2409091,17.3037162 L65.2409091,9.53209459 L63.1954545,9.53209459 L63.1954545,7.45236486 L65.2409091,7.45236486 L65.2409091,4.03175676 L67.9136364,3.48445946 L69.4681818,3.48445946 L69.4681818,7.45236486 L73.1227273,7.45236486 L73.1227273,9.53209459 L69.4681818,9.53209459 L69.4681818,17.3858108 C69.4681818,18.6172297 69.8227273,19.2192568 70.7772727,19.2192568 C71.7863636,19.2192568 72.2772727,18.3162162 72.8227273,16.3185811 L74.4045455,16.7290541 C73.8863636,19.7391892 72.4954545,21.4631757 69.5227273,21.4631757 C66.7954545,21.4631757 65.2409091,20.3138514 65.2409091,17.3037162 Z M73.7136364,9.34054054 L73.7136364,7.45236486 L81.2409091,7.45236486 L81.2409091,9.34054054 L79.55,9.45 L81.9772727,17.0300676 L82.0863636,17.0300676 L84.6772727,9.45 L83.0136364,9.34054054 L83.0136364,7.45236486 L88.25,7.45236486 L88.25,9.34054054 L86.8863636,9.45 L82.0045455,22.9135135 C81.0772727,25.5131757 80.1772727,26.9361486 77.5590909,26.9361486 C75.8136364,26.9361486 74.0409091,26.1152027 74.0409091,24.0628378 C74.0409091,22.8040541 74.8590909,21.7641892 76.3045455,21.7641892 C77.5045455,21.7641892 78.2954545,22.4756757 78.2681818,24.035473 L77.0409091,24.6101351 C76.9863636,25.1027027 77.3136364,25.4310811 77.9409091,25.4310811 C78.8954545,25.4310811 79.3045455,24.6922297 79.9318182,22.8861486 L80.6954545,20.6969595 L78.9772727,20.6969595 L74.9409091,9.45 L73.7136364,9.34054054 Z M98.4409091,7.45236486 L98.4409091,9.53209459 L94.65,9.53209459 L94.65,19.0824324 L97.9772727,19.3287162 L97.9772727,21.1621622 L88.5681818,21.1621622 L88.5681818,19.3287162 L90.4227273,19.0824324 L90.4227273,9.53209459 L88.65,9.53209459 L88.65,7.45236486 L90.4227273,7.45236486 L90.4227273,6.90506757 C90.4227273,2.63614865 92.3863636,0.00912162162 96.6136364,0.00912162162 C99.45,0.00912162162 100.65,1.65101351 100.65,3.15608108 C100.65,4.71587838 99.7772727,5.50945946 98.5227273,5.50945946 C97.1590909,5.50945946 96.5318182,4.66114865 96.5318182,3.64864865 C96.5318182,3.40236486 96.5863636,3.18344595 96.6681818,2.96452703 L97.65,2.85506757 C97.7045455,2.66351351 97.7318182,2.47195946 97.7318182,2.30777027 C97.7318182,1.67837838 97.2409091,1.48682432 96.6681818,1.48682432 C95.0318182,1.48682432 94.65,2.80033784 94.65,4.49695946 L94.65,7.45236486 L98.4409091,7.45236486 Z M108.468182,14.3756757 C108.468182,10.7908784 108.086364,8.82060811 105.931818,8.82060811 C103.886364,8.82060811 103.45,10.7908784 103.45,14.1841216 C103.45,17.8510135 103.886364,19.7665541 106.013636,19.7665541 C108.004545,19.7665541 108.468182,17.8236486 108.468182,14.3756757 Z M98.9772727,14.3756757 C98.9772727,10.1067568 101.431818,7.15135135 106.068182,7.15135135 C110.95,7.15135135 112.940909,10.1067568 112.940909,14.2662162 C112.940909,18.5351351 110.595455,21.4631757 105.904545,21.4631757 C101.077273,21.4631757 98.9772727,18.5351351 98.9772727,14.3756757 Z M119.668182,7.37027027 L119.668182,16.4554054 C119.668182,17.9331081 119.886364,18.9182432 121.386364,18.9182432 C122.777273,18.9182432 123.868182,18.0699324 123.868182,15.7712838 L123.868182,9.55945946 L122.368182,9.36790541 L122.368182,7.58918919 L128.095455,7.34290541 L128.095455,19.0550676 L129.786364,19.2466216 L129.786364,21.1621622 L124.495455,21.1621622 L124.331818,18.6993243 L124.168182,18.6993243 C123.486364,20.1222973 122.422727,21.4631757 119.75,21.4631757 C117.022727,21.4631757 115.440909,20.2043919 115.440909,17.0027027 L115.440909,9.55945946 L113.913636,9.36790541 L113.913636,7.61655405 L119.668182,7.37027027 Z M136.840909,19.0550676 L139.95,19.2466216 L139.95,21.1621622 L130.840909,21.1621622 L130.840909,19.2466216 L132.613636,19.0550676 L132.613636,9.61418919 L130.840909,9.42263514 L130.840909,7.56182432 L136.404545,7.37027027 L136.595455,9.72364865 L136.704545,9.72364865 C137.359091,8.4375 138.422727,7.15135135 140.631818,7.15135135 C142.459091,7.15135135 143.877273,8.13648649 143.877273,10.4351351 C143.877273,12.2412162 142.786364,13.3084459 141.231818,13.3084459 C139.513636,13.3084459 138.913636,12.2412162 138.940909,10.8182432 L140.031818,10.4898649 C140.059091,10.3530405 140.086364,10.2435811 140.086364,10.1341216 C140.086364,9.66891892 139.759091,9.47736486 139.295455,9.47736486 C137.768182,9.47736486 136.840909,11.3381757 136.840909,13.3631757 L136.840909,19.0550676 Z" id="twentyfour"/>
        </g>
        <path d="M179.240741,24.4445906 L179.22739,24.4445906 L176.867356,24.4445906 L176.867356,28.2352441 L176.861757,28.2352441 L176.861757,28.2507478 C176.239879,28.3528138 175.626615,28.4049235 175.020672,28.4049235 C174.416882,28.4049235 173.802326,28.3528138 173.182601,28.2507478 L173.182601,28.2352441 L173.17528,28.2352441 L173.17528,24.4445906 L162.85702,24.4445906 L162.850991,21.707327 L167.364341,17.6991911 C169.548665,15.8912879 170.400947,14.9386719 170.400947,13.4821859 C170.400947,12.000291 169.421619,11.1979747 168.042636,11.1979747 C166.738587,11.1979747 165.826443,11.9016703 164.596899,13.3827038 L164.362618,13.6957924 C163.838932,13.3999302 163.352283,13.0717686 162.902239,12.7091544 C162.453488,12.3478322 162.027562,11.9417215 161.628338,11.4946982 L161.826443,11.2479311 L161.831611,11.2513764 C163.5323,8.97104115 165.211025,7.73376011 168.29199,7.73376011 C171.932386,7.73376011 174.342377,9.86767154 174.342377,13.1561776 L174.342377,13.2057033 C174.342377,16.0958505 173.135228,17.1328755 170.826873,19.2207065 L170.825581,19.2207065 L168.508613,21.3055229 L173.17528,21.3055229 L173.17528,19.5583425 L176.867356,16.2461503 L176.867356,21.3055229 L179.22739,21.3055229 L179.22739,21.3068149 L179.240741,21.3068149 C179.327735,21.8365245 179.372524,22.3593435 179.372524,22.876564 C179.372524,23.3916313 179.327735,23.9153116 179.240741,24.4445906 M170.5,0 C160.282515,0 152,8.28284933 152,18.5002153 C152,28.7175813 160.282515,37 170.5,37 C180.717485,37 189,28.7175813 189,18.5002153 C189,8.28284933 180.717485,0 170.5,0" id="Fill-1" fill="#FFFFFF"/>
    </g>
</svg>